<?xml version="1.0" encoding="UTF-8" standalone="no"?>
<svg
   xmlns:dc="http://purl.org/dc/elements/1.1/"
   xmlns:cc="http://creativecommons.org/ns#"
   xmlns:rdf="http://www.w3.org/1999/02/22-rdf-syntax-ns#"
   xmlns:svg="http://www.w3.org/2000/svg"
   xmlns="http://www.w3.org/2000/svg"
   xmlns:sodipodi="http://sodipodi.sourceforge.net/DTD/sodipodi-0.dtd"
   xmlns:inkscape="http://www.inkscape.org/namespaces/inkscape"
   viewBox="0 0 300.00006 244.18703"
   height="244.19"
   width="300"
   version="1.1"
   id="svg3734"
   sodipodi:docname="green.svg"
   inkscape:version="0.92.1 r15371">
  <metadata
     id="metadata3740">
    <rdf:RDF>
      <cc:Work
         rdf:about="">
        <dc:format>image/svg+xml</dc:format>
        <dc:type
           rdf:resource="http://purl.org/dc/dcmitype/StillImage" />
        <dc:title></dc:title>
      </cc:Work>
    </rdf:RDF>
  </metadata>
  <defs
     id="defs3738" />
  <sodipodi:namedview
     pagecolor="#ffffff"
     bordercolor="#666666"
     borderopacity="1"
     objecttolerance="10"
     gridtolerance="10"
     guidetolerance="10"
     inkscape:pageopacity="0"
     inkscape:pageshadow="2"
     inkscape:window-width="1920"
     inkscape:window-height="1050"
     id="namedview3736"
     showgrid="false"
     inkscape:snap-center="true"
     inkscape:zoom="3.6569884"
     inkscape:cx="105.15436"
     inkscape:cy="122.095"
     inkscape:window-x="0"
     inkscape:window-y="30"
     inkscape:window-maximized="1"
     inkscape:current-layer="svg3734" />
  <g
     style=""
     transform="translate(-539.18 -568.86)"
     id="g3732">
    <path
       d="m633.9 812.04c112.46 0 173.96-93.168 173.96-173.96 0-2.6463-0.0539-5.2806-0.1726-7.903 11.938-8.6302 22.314-19.4 30.498-31.66-10.955 4.8694-22.744 8.1474-35.111 9.6255 12.623-7.5693 22.314-19.543 26.886-33.817-11.813 7.0031-24.895 12.093-38.824 14.841-11.157-11.884-27.041-19.317-44.629-19.317-33.764 0-61.144 27.381-61.144 61.132 0 4.7978 0.5364 9.4646 1.5854 13.941-50.815-2.5569-95.874-26.886-126.03-63.88-5.2508 9.0354-8.2785 19.531-8.2785 30.73 0 21.212 10.794 39.938 27.208 50.893-10.031-0.30992-19.454-3.0635-27.69-7.6468-0.009 0.25652-0.009 0.50661-0.009 0.78077 0 29.61 21.075 54.332 49.051 59.934-5.1376 1.4006-10.543 2.1516-16.122 2.1516-3.9336 0-7.766-0.38716-11.491-1.1026 7.7838 24.293 30.355 41.971 57.115 42.465-20.926 16.402-47.287 26.171-75.937 26.171-4.929 0-9.7983-0.28036-14.584-0.84634 27.059 17.344 59.189 27.464 93.722 27.464"
       fill="#1da1f2"
       id="path3730" />
  </g>
  <path
     style="fill:#8bc34a;stroke-width:0.27344906;fill-opacity:0"
     d="M 85.630093,242.82432 C 58.665217,241.44114 31.943078,233.55887 8.4252297,220.05107 5.8929526,218.59662 3.370385,217.09617 2.8195243,216.71673 l -1.001565,-0.68988 3.1446641,0.21771 c 5.7375266,0.39722 19.6901056,0.2306 24.0635166,-0.28736 18.695908,-2.21423 35.41787,-7.9322 50.861523,-17.39179 3.506654,-2.1479 8.495444,-5.56075 10.740248,-7.34745 l 1.032809,-0.82203 -2.126605,-0.17185 c -6.12151,-0.49466 -10.37708,-1.27274 -15.115433,-2.76368 -15.995071,-5.0329 -28.889252,-16.06688 -36.448658,-31.19033 -1.677369,-3.35577 -3.380115,-7.67238 -3.126513,-7.92598 0.09249,-0.0925 1.251689,-5.5e-4 2.576011,0.20405 3.079348,0.47601 14.196192,0.49327 17.03738,0.0264 2.977176,-0.48916 7.38314,-1.49173 7.383023,-1.68 -5.5e-5,-0.089 -1.354054,-0.49836 -3.008886,-0.90969 C 48.167229,143.33428 37.484794,137.0171 29.717898,128.76848 19.751087,118.18352 13.844531,104.35376 13.244334,90.196885 l -0.159418,-3.760209 3.121562,1.483787 c 7.147813,3.397604 16.832045,5.874046 23.050971,5.894569 l 1.617668,0.0053 -1.617668,-1.130392 C 34.874184,89.627045 29.17281,84.061511 25.8055,79.558538 19.358507,70.93722 15.274365,60.717628 13.981914,49.972839 13.601097,46.806911 13.609542,39.083233 13.997381,35.826009 14.882507,28.392393 17.64984,19.606667 20.894688,13.928448 l 0.885052,-1.548767 2.292885,2.727815 c 10.131081,12.052813 22.796448,23.273271 36.53688,32.368624 24.048294,15.91855 50.926125,25.398905 79.822675,28.155083 2.39291,0.228237 5.0454,0.414978 5.89441,0.414978 h 1.54367 l -0.47637,-2.352963 c -0.66516,-3.285461 -1.05811,-7.546798 -1.05811,-11.474732 0,-34.673032 28.6408,-62.27655047 63.30346,-61.0107993 15.18187,0.5543856 29.07652,6.4761731 40.11407,17.0962993 l 2.10465,2.025058 1.27502,-0.191201 c 2.43311,-0.364868 9.82368,-2.361451 14.21957,-3.841458 6.94512,-2.33828 15.20098,-6.01658 21.38183,-9.5264138 0.93998,-0.533775 1.70905,-0.8566024 1.70905,-0.7173947 0,0.4743584 -2.18647,5.7429875 -3.31387,7.9853075 -4.67519,9.298481 -12.10321,17.74715 -20.55499,23.379331 -1.4721,0.980998 -2.62806,1.832128 -2.56879,1.891401 0.0593,0.05927 1.38677,-0.08125 2.95001,-0.312271 9.79189,-1.447076 20.70997,-4.438338 29.07172,-7.964876 1.19472,-0.503874 2.22686,-0.861526 2.29358,-0.794786 0.17197,0.171962 -2.86069,4.368647 -5.8342,8.073529 -6.34104,7.900747 -14.11487,15.466546 -21.93382,21.346852 l -1.97945,1.488665 -0.11263,9.159283 c -0.14787,12.025507 -1.05174,21.020116 -3.18745,31.718828 -10.0497,50.34341 -40.89281,94.33529 -83.11593,118.5492 -28.38114,16.27587 -61.98859,24.02298 -96.527517,22.25128 z"
     id="path7674"
     inkscape:connector-curvature="0"
     transform="translate(0,-0.00151064)" />
  <path
     style="fill:#8bc34a;stroke:none;stroke-width:0.27344906;fill-opacity:0"
     d="M 88.747413,243.2104 C 59.3822,242.25935 30.305228,233.62201 4.8669162,218.29363 c -3.6810193,-2.21807 -4.68027458,-3.03943 -3.2813886,-2.6972 3.4391947,0.84137 21.0477984,0.89213 27.6867164,0.0798 22.065009,-2.69982 41.593403,-10.33755 58.996633,-23.07412 1.315973,-0.96309 2.392679,-1.86429 2.392679,-2.00265 0,-0.13837 -0.795608,-0.25158 -1.768018,-0.25158 -4.1287,0 -12.168791,-1.63811 -17.373416,-3.53972 -3.575565,-1.3064 -9.677758,-4.4059 -12.762794,-6.48263 -9.210874,-6.20043 -16.081897,-14.00355 -20.991855,-23.83954 -1.311426,-2.62715 -3.434422,-7.85911 -3.434422,-8.46388 0,-0.13118 1.01518,-0.0545 2.255955,0.1704 3.443869,0.62423 15.361293,0.60502 18.799622,-0.0303 5.716518,-1.05628 6.312386,-1.29828 4.17312,-1.69483 -0.565651,-0.10485 -2.382028,-0.62483 -4.036395,-1.15551 -9.67142,-3.10235 -17.701631,-8.02217 -24.883864,-15.24546 -8.876183,-8.92692 -14.588238,-19.87588 -16.82158,-32.243869 -0.541228,-2.997259 -1.229474,-11.336315 -0.958022,-11.607765 0.0806,-0.08061 1.468369,0.485334 3.083923,1.257641 7.215001,3.449098 14.400018,5.447559 21.451938,5.966705 l 2.541009,0.187064 -2.597766,-2.010015 C 24.544061,81.716139 16.281726,67.582413 13.922142,51.558821 c -0.658363,-4.470848 -0.657028,-13.036358 0.0027,-17.340596 0.665684,-4.343085 2.109876,-9.806603 3.598727,-13.614338 1.355627,-3.467013 3.929139,-8.604938 4.249064,-8.483105 0.108386,0.04128 1.462266,1.551671 3.008622,3.356434 10.46168,12.209903 22.456943,22.798476 35.937629,31.723208 16.916499,11.199368 34.632207,18.980916 54.416366,23.902145 9.62463,2.394091 24.64509,4.670163 30.81975,4.670163 1.41743,0 1.60233,-0.06005 1.47356,-0.478536 -1.02156,-3.319794 -1.57867,-14.4761 -0.98938,-19.812513 1.86509,-16.889542 10.58655,-32.235911 24.06054,-42.337187 17.40921,-13.05145173 40.54271,-15.9117129 60.62908,-7.4962702 6.9413,2.9081449 14.57594,8.0132542 19.35345,12.9412042 0.82663,0.852661 1.59322,1.399696 1.96148,1.399696 1.18759,0 10.48814,-2.486593 14.89344,-3.981904 7.1737,-2.434998 14.16585,-5.516097 20.27606,-8.9346775 1.93395,-1.0820114 3.21303,-1.654046 3.21303,-1.4369365 0,0.1983865 -0.43672,1.5094899 -0.9705,2.913563 -4.44365,11.688917 -12.59419,21.967926 -23.0254,29.038384 -1.62011,1.098141 -2.04436,1.493258 -1.50397,1.40069 0.41401,-0.07092 2.66004,-0.449375 4.99119,-0.84102 8.06404,-1.354795 18.35932,-4.311061 25.54318,-7.334669 1.64099,-0.690675 3.04425,-1.195133 3.11836,-1.121018 0.33855,0.338533 -5.88312,8.559508 -10.14422,13.404032 -5.07741,5.772586 -12.27658,12.459564 -17.88946,16.616701 l -2.25557,1.670566 8.2e-4,7.680497 c 8.2e-4,10.368439 -0.66193,18.67849 -2.22561,27.901699 -5.45089,32.150897 -19.03401,61.596677 -40.06562,86.854857 -4.46856,5.36658 -14.90526,15.81029 -20.20568,20.21925 -20.04275,16.67185 -41.59561,27.64395 -66.58484,33.89696 -11.99963,3.00264 -23.34807,4.58928 -37.05235,5.18033 -5.938098,0.2561 -8.305858,0.27221 -13.809178,0.094 z"
     id="path8481"
     inkscape:connector-curvature="0"
     transform="translate(0,-0.00151064)" />
  <path
     style="fill:#8bc34a;stroke:none;stroke-width:0.27344906;fill-opacity:1"
     d="m 85.466024,242.81433 c -28.49901,-1.5363 -55.628399,-9.88733 -80.4799335,-24.7735 -1.62642,-0.97424 -2.8970456,-1.83142 -2.8236124,-1.90485 0.073433,-0.0734 1.8417829,8.2e-4 3.929666,0.16475 7.5957249,0.5968 17.3179539,0.33618 25.5044169,-0.68367 20.455657,-2.54833 41.136729,-10.96302 57.915024,-23.56439 1.09708,-0.82396 1.950255,-1.54255 1.895945,-1.59686 -0.05431,-0.0543 -1.628706,-0.22618 -3.49866,-0.38192 -18.958761,-1.57909 -35.669673,-11.45388 -46.209228,-27.30591 -2.167745,-3.2604 -4.41845,-7.56944 -5.804629,-11.11314 -1.568914,-4.01085 -1.672647,-3.66674 0.961707,-3.19024 2.961341,0.53565 14.817025,0.6086 17.572837,0.10814 4.12004,-0.74822 7.519849,-1.50966 7.519849,-1.68419 0,-0.1007 -0.769076,-0.33885 -1.709057,-0.52922 -5.399005,-1.09343 -14.100748,-4.803 -19.324951,-8.23826 -14.875589,-9.7817 -24.934995,-25.56375 -27.199988,-42.673676 -0.495691,-3.74448 -0.848595,-9.010149 -0.60386,-9.010149 0.09617,0 1.249099,0.536983 2.562068,1.193293 3.429367,1.714236 7.056045,3.090002 10.982026,4.165994 3.921999,1.074901 10.441902,2.095653 12.592533,1.97148 l 1.461229,-0.08437 -1.753571,-1.226408 C 29.020687,85.508817 20.894795,74.502608 16.80968,62.461115 14.560336,55.830828 13.688431,50.326906 13.698566,42.822121 c 0.01106,-8.186506 1.269758,-14.977726 4.122596,-22.243125 1.250203,-3.183925 3.605884,-7.972995 3.921812,-7.972995 0.09192,0 1.515973,1.563716 3.164572,3.474924 26.35957,30.558438 62.799997,51.132537 102.386234,57.806802 5.7262,0.965442 12.75175,1.801567 17.29516,2.058339 l 3.3045,0.186752 -0.16107,-0.65858 c -0.51229,-2.09474 -1.0619,-6.201961 -1.25747,-9.397156 -1.06873,-17.46084 4.95077,-33.806733 17.06036,-46.327236 5.14261,-5.317123 10.41828,-9.164716 16.92892,-12.3464194 8.18637,-4.0006228 15.63723,-5.8542446 24.9095,-6.1969722 16.21752,-0.59944318 31.53509,5.1965599 43.93029,16.6227556 1.50531,1.38763 2.87707,2.433365 3.192,2.433365 0.30376,0 2.77685,-0.558098 5.49577,-1.240216 10.49848,-2.633845 21.25384,-6.909363 30.57857,-12.155729 1.09037,-0.6134789 1.9825,-1.0735219 1.9825,-1.0223177 0,0.051204 -0.48061,1.3263766 -1.06806,2.8337169 -2.25213,5.7789598 -5.73327,11.8157828 -9.5186,16.5066288 -3.49137,4.326579 -10.24663,10.372841 -14.39592,12.88499 -2.55704,1.54814 -2.54019,1.549362 4.74735,0.343799 7.67577,-1.269788 16.53757,-3.755678 24.20481,-6.789863 2.08653,-0.825712 3.83496,-1.460032 3.88538,-1.4096 0.15472,0.154704 -4.56993,6.511886 -7.10634,9.561817 -5.89433,7.087791 -12.78005,13.735034 -20.00656,19.313684 l -2.97087,2.293428 0.17445,3.981883 c 0.29365,6.702409 -0.45342,19.260857 -1.62759,27.360303 -2.8592,19.722701 -8.71873,38.159701 -17.90307,56.331981 -21.41423,42.3705 -57.5181,73.18182 -101.2135,86.37638 -19.5274,5.89663 -41.50716,8.50113 -62.288266,7.38087 z"
     id="path8483"
     inkscape:connector-curvature="0"
     transform="translate(0,-0.00151064)" />
  <path
     style="fill:none;stroke:none;stroke-width:0.27344906;fill-opacity:0"
     d="M 84.782401,242.95054 C 64.270534,241.64445 44.857907,237.06794 26.401029,229.1872 19.127425,226.08151 8.3208862,220.42978 2.8844106,216.88821 l -1.7774188,-1.15789 1.5039698,0.15778 c 0.8271834,0.0868 4.0686872,0.30258 7.203342,0.47956 14.2855834,0.80655 30.3546744,-1.3817 44.4666964,-6.05538 12.322741,-4.08109 25.230395,-10.79794 34.837666,-18.12874 l 2.226513,-1.69893 -1.230521,-0.0718 c -22.826914,-1.33096 -42.430398,-14.1288 -52.248066,-34.10933 -1.954078,-3.97686 -3.682303,-8.3402 -3.303377,-8.3402 0.120124,0 1.501364,0.20352 3.069422,0.45225 3.506932,0.5563 12.17667,0.6397 15.703124,0.15106 3.285897,-0.4553 8.066747,-1.44981 8.066747,-1.67804 0,-0.1007 -0.769076,-0.34117 -1.709057,-0.53437 -5.316998,-1.09286 -14.040977,-4.90781 -19.34652,-8.46014 C 28.885234,130.21985 20.435942,119.1977 16.145813,106.32353 14.250541,100.63605 13.002026,93.509083 13.002026,88.377694 v -2.182842 l 3.34975,1.616053 c 6.209519,2.995722 13.604148,5.044706 20.679913,5.730213 1.710949,0.165759 3.156928,0.255264 3.213292,0.198904 0.05636,-0.05636 -1.035875,-0.943364 -2.427192,-1.971111 C 34.549636,89.354766 28.126829,82.922224 25.668312,79.601019 17.583245,68.678922 13.548924,56.477727 13.548924,42.947763 c 0,-8.61703 1.465873,-16.018143 4.709694,-23.778985 1.310925,-3.136387 3.256228,-6.872722 3.525966,-6.772306 0.107563,0.04004 1.391453,1.474153 2.853089,3.186911 6.713003,7.86636 15.710737,16.52463 23.912729,23.010552 27.4958,21.74297 60.520728,34.646399 95.160268,37.180823 2.03036,0.148551 3.76411,0.270395 3.85278,0.270759 0.0887,2.73e-4 -0.0576,-1.137568 -0.3251,-2.52874 -5.98913,-31.150905 13.27347,-61.941377 44.02295,-70.3688734 8.91312,-2.4428166 19.03976,-2.76270847 28.46821,-0.8992867 5.41064,1.0693496 12.3912,3.6718507 17.36401,6.473675 4.53713,2.5563441 10.09999,6.7030741 12.71538,9.4784421 2.07492,2.201827 1.93936,2.173293 5.9366,1.249612 11.07604,-2.559448 23.09366,-7.174945 32.09721,-12.3272873 1.35768,-0.7769305 2.54382,-1.3372643 2.63589,-1.245186 0.25297,0.252957 -1.45193,4.5735723 -3.12725,7.9252423 -4.88815,9.7793 -11.92347,17.814128 -20.86205,23.825897 l -2.32432,1.563254 1.64069,-0.189736 c 8.35628,-0.966349 20.65164,-4.218181 29.38011,-7.770344 1.87135,-0.761567 3.44912,-1.337981 3.50619,-1.280923 0.14118,0.141195 -3.36873,5.021823 -5.81339,8.083682 -6.27897,7.864165 -13.84875,15.290584 -21.6905,21.279673 l -2.54762,1.945727 0.023,6.640935 c 0.12146,35.08815 -10.66786,70.36005 -30.65931,100.22991 -11.51235,17.20094 -26.86652,33.02717 -43.15851,44.48535 -24.2702,17.06929 -51.391,26.82414 -82.99178,29.85059 -4.15718,0.39814 -23.098701,0.73638 -27.071459,0.48341 z"
     id="path8485"
     inkscape:connector-curvature="0"
     transform="translate(0,-0.00151064)" />
</svg>
